<?xml version="1.0" encoding="utf-8"?>
<!-- Generator: Adobe Illustrator 26.5.0, SVG Export Plug-In . SVG Version: 6.00 Build 0)  -->
<svg version="1.1" id="Layer_1" xmlns="http://www.w3.org/2000/svg" xmlns:xlink="http://www.w3.org/1999/xlink" x="0px" y="0px"
	 viewBox="0 0 2900 2050" width="100%" height="100%" style="enable-background:new 0 0 2900 2050;" xml:space="preserve">
<style type="text/css">
	.st0{fill:#F41D21;}
	.st1{fill:#EF5A21;}
	.st2{fill:#ED8639;}
	.st3{fill:#00A8C1;}
	.st4{fill:#006BB6;}
</style>
<g>
	<path class="st0" d="M587,1124h106.5c-48.6,37.7-74.4,62.9-106.5,118V1124z"/>
	<path class="st0" d="M587,1845h110.5c-48.5-25-79.5-56-110.5-105V1845z"/>
	<path class="st0" d="M587,1636v-229c40,74.5,83.5,128.5,287.5,168s187,91,164,112s-94,37.5-145,19c-34.8-12.6-50-40.6-56.2-57.1
		c-2.7-7.3-9.5-12.9-17.2-12.9H587z"/>
	<path class="st1" d="M1179,1124h381.5l-256,720.5H1212c0,0,156.5-92.5,105-272c-41.6-145-239-180.5-286.5-188.5s-179-28.5-182-83
		s111-58,149-34.5s40.5,56.5,40.5,56.5h259C1297,1240.5,1250.5,1172,1179,1124z"/>
	<path class="st2" d="M1633,1610l75-253l79.5,253H1633z"/>
	<path class="st2" d="M1563,1845.5l25.5-62h245l24,62H1563z"/>
	<path class="st2" d="M2117,1844.5L1858.5,1124H2164v720.5H2117z"/>
	<path class="st3" d="M2422,1425.5v-140h158c0,0,70,0,70,70s-70,70-70,70H2422z"/>
	<path class="st3" d="M2422,1610v235h225.5c-8.5-35.5-14-86-9.5-129s-15-106-108-106H2422z"/>
	<path class="st3" d="M2772,1515c142-55.5,179.5-300.5,14-390.5h136.5V1302H3165v543h-256.5C2876.5,1795,2945,1553,2772,1515z"/>
	<path class="st4" d="M3435,1845v-543h236V923.6c0-6.3-3.2-10.8-9.5-10.7c-44,0.3-227.1,18.3-336-179.8c-1-1.7,0.1-4,2-4.4
		c217.2-45.7,315,133.8,344.7,177.3c3.7,5.4,10.2,5.6,13.8,0.1c28.2-42.5,107.7-216.4,339.8-177.8c2,0.3,3.2,2.7,2.1,4.5
		c-116.3,205.8-292.9,181.6-333.1,180.6c-4.9-0.1-7.8,3.5-7.8,8.4c0.4,69.1,2.9,587.6,0,923.3L3435,1845L3435,1845z"/>
	<path class="st4" d="M3677.1,439.2c-92.3,125.2-95.2,241.9-0.6,379.7c1.2,1.7,3.8,1.7,4.9,0c94-138.3,86.4-262.6,0.4-379.7
		C3680.7,437.6,3678.3,437.6,3677.1,439.2z"/>
	<path d="M609,1917.3h20.2l33.8,93.1l33.7-93.1H717L671,2041h-16.2L609,1917.3z M598.8,1917.3h19.8l3.6,85.5v38.2h-23.4
		L598.8,1917.3L598.8,1917.3z M707.4,1917.3h19.9V2041h-23.4v-38.2L707.4,1917.3z"/>
	<path d="M808.7,1936.1L773.5,2041h-24.7l46.2-123.7h15.8L808.7,1936.1z M838.2,2041l-35.4-104.9l-2.1-18.8h15.9L863,2041H838.2z
		 M836.6,1995v18.4h-66.4V1995H836.6z"/>
	<path d="M882.7,1917.3h44.9c9.4,0,17.5,1.4,24.2,4.2c6.7,2.8,11.9,7,15.5,12.6s5.4,12.4,5.4,20.5c0,6.4-1.1,12-3.4,16.7
		s-5.5,8.6-9.6,11.8c-4.1,3.2-8.9,5.7-14.4,7.5l-7.3,3.7h-39.7l-0.2-18.4h29.7c4.8,0,8.8-0.8,12-2.5s5.6-4.1,7.1-7.1
		c1.6-3,2.5-6.4,2.5-10.3c0-4.1-0.8-7.7-2.4-10.7c-1.6-3.1-4-5.4-7.2-7.1c-3.2-1.6-7.3-2.5-12.2-2.5H906V2041h-23.4v-123.7H882.7z
		 M952.6,2041l-28.6-55.4l24.7-0.1l29,54.3v1.2H952.6z"/>
	<path d="M1023.7,1917.3V2041h-23.4v-123.7H1023.7z M1097.9,1917.3l-49.6,60.3l-28.4,30.3l-4.2-22.7l19.7-25.6l33.8-42.4
		L1097.9,1917.3L1097.9,1917.3z M1071.9,2041l-38.5-57.9l16.7-15.1l49.5,73.1L1071.9,2041L1071.9,2041z"/>
	<path d="M1199.5,2022.7v18.3h-65.8v-18.3H1199.5z M1140.9,1917.3V2041h-23.4v-123.7H1140.9z M1191,1968.4v17.9h-57.2v-17.9H1191z
		 M1199.3,1917.3v18.4h-65.5v-18.4H1199.3z"/>
	<path d="M1277.5,1917.3V2041h-23.3v-123.7H1277.5z M1315.9,1917.3v18.4h-99.7v-18.4H1315.9z"/>
	<path d="M1363.3,1917.3V2041H1340v-123.7H1363.3z"/>
	<path d="M1494.9,1917.3V2041h-23.5l-52.6-85.8v85.8h-23.4v-123.7h23.4l52.8,85.9v-85.9H1494.9z"/>
	<path d="M1622.2,1977v48.2c-1.8,2.3-4.7,4.8-8.6,7.6c-3.8,2.7-8.9,5.1-15.1,7.1c-6.2,1.9-13.9,2.9-22.9,2.9
		c-7.9,0-15.1-1.3-21.6-3.9c-6.5-2.7-12.1-6.5-16.8-11.6c-4.7-5.1-8.3-11.3-10.9-18.7c-2.5-7.4-3.8-15.8-3.8-25.2v-8.2
		c0-9.5,1.2-17.9,3.6-25.2c2.4-7.4,5.9-13.6,10.4-18.7s9.9-9,16.2-11.6c6.3-2.7,13.4-4,21.2-4c10.5,0,19.1,1.7,25.8,5.2
		c6.8,3.5,12,8.2,15.6,14.3c3.6,6,5.9,12.9,6.8,20.7h-22.8c-0.6-4.3-1.9-8.1-3.7-11.3c-1.9-3.3-4.5-5.8-8-7.7
		c-3.4-1.9-7.8-2.8-13.3-2.8c-4.6,0-8.6,0.9-12.2,2.7c-3.5,1.8-6.4,4.4-8.8,7.9s-4.2,7.7-5.4,12.8c-1.2,5.1-1.8,10.9-1.8,17.5v8.3
		c0,6.6,0.7,12.5,2,17.7c1.4,5.1,3.3,9.4,5.9,12.9s5.8,6.1,9.6,7.9c3.8,1.8,8.2,2.6,13.1,2.6c4.4,0,8.1-0.4,11-1.1
		c3-0.8,5.3-1.7,7.1-2.8c1.8-1.1,3.1-2.1,4.1-3.1v-23.2h-24.5V1977H1622.2z"/>
	<path d="M1720.1,1974.2l22.5-14.8c3.6-2.4,6-4.7,7.4-6.9c1.4-2.2,2-4.9,2-8c0-2.8-1.1-5.3-3.2-7.7c-2.1-2.4-5.1-3.7-8.9-3.7
		c-2.7,0-5,0.6-6.9,1.9c-1.9,1.2-3.3,2.9-4.2,5c-0.9,2-1.4,4.3-1.4,6.8c0,2.6,0.7,5.2,2,7.8c1.4,2.7,3.2,5.5,5.4,8.4
		c2.3,2.9,4.9,6,7.7,9.4l58.4,68.5h-25.7l-47.8-55.6c-4-5-7.6-9.6-10.7-13.8c-3.1-4.2-5.6-8.2-7.3-12.2c-1.7-4-2.5-8-2.5-12.2
		c0-6.5,1.4-12.1,4.1-16.8c2.7-4.8,6.5-8.4,11.5-11s10.8-3.9,17.5-3.9c6.3,0,11.8,1.3,16.4,3.9c4.7,2.5,8.2,5.9,10.8,10.2
		c2.6,4.2,3.8,8.9,3.8,13.9c0,3.8-0.7,7.4-2.1,10.7c-1.4,3.2-3.4,6.2-5.9,8.9c-2.5,2.7-5.4,5.2-8.7,7.6l-26.5,19
		c-2.6,2.2-4.5,4.3-5.8,6.4c-1.2,2-2.1,3.9-2.6,5.7c-0.4,1.8-0.6,3.4-0.6,4.9c0,3.5,0.7,6.6,2.2,9.3c1.5,2.7,3.7,4.9,6.5,6.5
		s6.2,2.4,10,2.4c4.7,0,9.2-1.1,13.6-3.2s8.3-5.1,11.7-8.9c3.5-3.8,6.3-8.4,8.3-13.8c2.1-5.4,3.2-11.3,3.2-17.8h19.2
		c0,6.2-0.6,12-1.8,17.6c-1.2,5.5-3.1,10.6-5.8,15.3c-2.7,4.7-6.2,8.9-10.4,12.6c-0.4,0.3-0.9,0.8-1.5,1.4c-0.5,0.6-1,1-1.4,1.4
		c-5.2,4.4-10.7,7.7-16.7,9.9c-5.9,2.1-12.4,3.2-19.4,3.2c-8.3,0-15.4-1.5-21.4-4.5s-10.7-7.1-13.9-12.4c-3.2-5.3-4.8-11.3-4.8-18.1
		c0-5,1-9.4,3-13.2c2-3.8,4.8-7.3,8.4-10.5C1711.3,1980.8,1715.4,1977.5,1720.1,1974.2z"/>
	<path d="M1936.5,2008.9c0-2.4-0.4-4.5-1.1-6.4s-2-3.7-3.8-5.2c-1.8-1.6-4.4-3.1-7.7-4.6c-3.3-1.5-7.5-3.1-12.7-4.8
		c-5.8-1.8-11.2-3.8-16.1-6.1c-5-2.3-9.4-4.9-13.2-7.9c-3.7-3-6.7-6.5-8.8-10.4c-2.1-4-3.2-8.5-3.2-13.8c0-5.1,1.1-9.8,3.2-13.9
		c2.2-4.2,5.3-7.8,9.3-10.8c4-3.1,8.8-5.4,14.2-7c5.5-1.6,11.5-2.5,18.2-2.5c9.2,0,17.1,1.7,23.8,5c6.7,3.3,11.9,7.9,15.6,13.6
		s5.5,12.2,5.5,19.3h-23.3c0-3.8-0.8-7.2-2.5-10.2c-1.6-2.9-4-5.3-7.3-7c-3.2-1.7-7.3-2.5-12.2-2.5c-4.8,0-8.7,0.7-11.9,2.1
		c-3.1,1.4-5.5,3.3-7.1,5.8c-1.5,2.4-2.3,5.1-2.3,8.2c0,2.3,0.5,4.3,1.6,6.1c1.1,1.8,2.7,3.4,4.8,5c2.2,1.5,4.8,3,8,4.3
		s7,2.6,11.2,3.9c6.8,2,12.7,4.3,17.8,6.8c5.2,2.5,9.4,5.3,12.8,8.5c3.5,3.2,6,6.7,7.7,10.7c1.8,4,2.6,8.5,2.6,13.5
		c0,5.3-1,10.1-3.1,14.3c-2.1,4.2-5.1,7.8-9,10.7c-3.9,3-8.6,5.2-14.1,6.7c-5.4,1.5-11.5,2.3-18.3,2.3c-6,0-11.9-0.8-17.8-2.4
		c-5.8-1.6-11.1-4.1-15.9-7.3c-4.8-3.3-8.5-7.4-11.4-12.4c-2.8-5-4.2-10.9-4.2-17.7h23.5c0,3.9,0.6,7.2,1.9,10
		c1.3,2.7,3.1,5,5.4,6.7c2.4,1.7,5.2,2.9,8.3,3.7c3.2,0.8,6.6,1.2,10.3,1.2c4.8,0,8.7-0.7,11.7-1.9c3.1-1.4,5.4-3.2,7-5.6
		C1935.7,2014.7,1936.5,2011.9,1936.5,2008.9z"/>
	<path d="M2034.1,1936.1l-35.3,104.9h-24.7l46.2-123.7h15.8L2034.1,1936.1z M2063.6,2041l-35.4-104.9l-2.1-18.8h15.9l46.5,123.7
		L2063.6,2041L2063.6,2041z M2062,1995v18.4h-66.3V1995H2062z"/>
	<path d="M2186.6,2022.7v18.3h-62.2v-18.3H2186.6z M2131.5,1917.3V2041h-23.4v-123.7H2131.5z"/>
	<path d="M2291.2,2022.7v18.3h-65.8v-18.3H2291.2z M2232.6,1917.3V2041h-23.4v-123.7H2232.6z M2282.6,1968.4v17.9h-57.2v-17.9
		H2282.6z M2291,1917.3v18.4h-65.5v-18.4H2291z"/>
	<path d="M2379.1,2008.9c0-2.4-0.4-4.5-1.1-6.4c-0.7-1.9-2-3.7-3.8-5.2c-1.8-1.6-4.4-3.1-7.7-4.6s-7.5-3.1-12.7-4.8
		c-5.8-1.8-11.2-3.8-16.1-6.1c-5-2.3-9.4-4.9-13.2-7.9c-3.7-3-6.7-6.5-8.8-10.4c-2.1-4-3.1-8.5-3.1-13.8c0-5.1,1.1-9.8,3.2-13.9
		c2.2-4.2,5.3-7.8,9.4-10.8c4-3.1,8.8-5.4,14.2-7c5.5-1.6,11.6-2.5,18.2-2.5c9.2,0,17.1,1.7,23.8,5s11.9,7.9,15.6,13.6
		c3.7,5.7,5.5,12.2,5.5,19.3h-23.3c0-3.8-0.8-7.2-2.5-10.2c-1.6-2.9-4-5.3-7.3-7c-3.2-1.7-7.3-2.5-12.2-2.5c-4.8,0-8.7,0.7-11.9,2.1
		c-3.1,1.4-5.5,3.3-7.1,5.8c-1.5,2.4-2.3,5.1-2.3,8.2c0,2.3,0.5,4.3,1.6,6.1c1.1,1.8,2.7,3.4,4.8,5c2.2,1.5,4.8,3,8,4.3
		s7,2.6,11.2,3.9c6.8,2,12.7,4.3,17.8,6.8c5.2,2.5,9.4,5.3,12.8,8.5c3.4,3.2,6,6.7,7.7,10.7c1.8,4,2.6,8.5,2.6,13.5
		c0,5.3-1.1,10.1-3.1,14.3c-2.1,4.2-5.1,7.8-9,10.7c-3.9,3-8.6,5.2-14.1,6.7c-5.4,1.5-11.5,2.3-18.3,2.3c-6,0-11.9-0.8-17.8-2.4
		c-5.8-1.6-11.1-4.1-15.9-7.3c-4.8-3.3-8.6-7.4-11.4-12.4c-2.8-5-4.2-10.9-4.2-17.7h23.4c0,3.9,0.6,7.2,1.9,10
		c1.3,2.7,3.1,5,5.4,6.7c2.4,1.7,5.2,2.9,8.3,3.7c3.2,0.8,6.6,1.2,10.3,1.2c4.8,0,8.7-0.7,11.7-1.9c3.1-1.4,5.4-3.2,7-5.6
		C2378.4,2014.7,2379.1,2011.9,2379.1,2008.9z"/>
	<path d="M2527.1,1936.1l-35.3,104.9h-24.7l46.2-123.7h15.8L2527.1,1936.1z M2556.5,2041l-35.4-104.9l-2.1-18.8h15.9l46.5,123.7
		L2556.5,2041L2556.5,2041z M2554.9,1995v18.4h-66.3V1995H2554.9z"/>
	<path d="M2671.9,2000.3h23.4c-0.6,8.3-2.9,15.6-6.9,22c-4,6.3-9.5,11.3-16.6,14.9s-15.7,5.4-25.7,5.4c-7.8,0-14.8-1.4-21-4.1
		c-6.2-2.8-11.5-6.7-15.9-11.8c-4.4-5.2-7.7-11.3-10-18.5s-3.5-15.4-3.5-24.4v-9.4c0-9,1.2-17.1,3.6-24.4
		c2.4-7.2,5.8-13.4,10.2-18.5c4.5-5.1,9.8-9.1,16.1-11.9s13.3-4.2,21.1-4.2c10.1,0,18.6,1.9,25.6,5.6s12.4,8.8,16.2,15.2
		c3.9,6.5,6.2,13.9,7,22.3H2672c-0.4-5.2-1.6-9.6-3.4-13.3c-1.8-3.6-4.4-6.4-8-8.2c-3.5-1.9-8.2-2.9-14-2.9c-4.5,0-8.5,0.9-12,2.6
		c-3.4,1.7-6.2,4.2-8.5,7.7c-2.3,3.3-4,7.5-5.1,12.6c-1.1,5-1.7,10.8-1.7,17.3v9.6c0,6.3,0.5,11.9,1.5,16.9s2.6,9.2,4.8,12.7
		s4.9,6.1,8.3,7.9c3.4,1.8,7.5,2.7,12.2,2.7c5.7,0,10.4-0.9,13.9-2.7c3.6-1.8,6.4-4.5,8.2-8
		C2670.2,2009.9,2671.4,2005.5,2671.9,2000.3z"/>
	<path d="M2792.7,2000.3h23.4c-0.6,8.3-2.9,15.6-6.9,22c-4,6.3-9.5,11.3-16.6,14.9s-15.7,5.4-25.7,5.4c-7.8,0-14.8-1.4-21-4.1
		c-6.2-2.8-11.5-6.7-15.9-11.8c-4.4-5.2-7.7-11.3-10-18.5s-3.5-15.4-3.5-24.4v-9.4c0-9,1.2-17.1,3.6-24.4
		c2.4-7.2,5.8-13.4,10.2-18.5c4.5-5.1,9.8-9.1,16.1-11.9s13.3-4.2,21.1-4.2c10.1,0,18.6,1.9,25.6,5.6s12.4,8.8,16.2,15.2
		c3.9,6.5,6.2,13.9,7,22.3h-23.4c-0.4-5.2-1.6-9.6-3.4-13.3c-1.8-3.6-4.4-6.4-8-8.2c-3.5-1.9-8.2-2.9-14-2.9c-4.5,0-8.5,0.9-12,2.6
		c-3.4,1.7-6.2,4.2-8.5,7.7c-2.3,3.3-4,7.5-5.1,12.6c-1.1,5-1.7,10.8-1.7,17.3v9.6c0,6.3,0.5,11.9,1.5,16.9s2.6,9.2,4.8,12.7
		s4.9,6.1,8.3,7.9c3.4,1.8,7.4,2.7,12.1,2.7c5.7,0,10.4-0.9,13.9-2.7c3.6-1.8,6.4-4.5,8.2-8
		C2791,2009.9,2792.2,2005.5,2792.7,2000.3z"/>
	<path d="M2923.1,2022.7v18.3h-65.8v-18.3H2923.1z M2864.5,1917.3V2041h-23.4v-123.7H2864.5z M2914.5,1968.4v17.9h-57.2v-17.9
		H2914.5z M2922.9,1917.3v18.4h-65.5v-18.4H2922.9z"/>
	<path d="M3024.8,2022.7v18.3h-62.2v-18.3H3024.8z M2969.7,1917.3V2041h-23.4v-123.7H2969.7z"/>
	<path d="M3129.4,2022.7v18.3h-65.8v-18.3H3129.4z M3070.8,1917.3V2041h-23.4v-123.7H3070.8z M3120.8,1968.4v17.9h-57.2v-17.9
		H3120.8z M3129.1,1917.3v18.4h-65.5v-18.4H3129.1z"/>
	<path d="M3152.6,1917.3h44.9c9.4,0,17.5,1.4,24.2,4.2c6.7,2.8,11.9,7,15.6,12.6c3.6,5.6,5.4,12.4,5.4,20.5c0,6.4-1.1,12-3.4,16.7
		c-2.3,4.7-5.5,8.6-9.6,11.8c-4.1,3.2-8.9,5.7-14.4,7.5l-7.3,3.7h-39.7l-0.2-18.4h29.6c4.8,0,8.8-0.8,12-2.5s5.6-4.1,7.1-7.1
		c1.6-3,2.5-6.4,2.5-10.3c0-4.1-0.8-7.7-2.4-10.7c-1.6-3.1-4-5.4-7.2-7.1c-3.2-1.6-7.3-2.5-12.2-2.5h-21.6V2041h-23.4L3152.6,1917.3
		L3152.6,1917.3z M3222.4,2041l-28.6-55.4l24.7-0.1l29,54.3v1.2H3222.4z"/>
	<path d="M3319.3,1936.1l-35.2,104.9h-24.7l46.2-123.7h15.8L3319.3,1936.1z M3348.8,2041l-35.4-104.9l-2.1-18.8h15.9l46.5,123.7
		L3348.8,2041L3348.8,2041z M3347.2,1995v18.4h-66.3V1995H3347.2z"/>
	<path d="M3435.7,1917.3V2041h-23.3v-123.7H3435.7z M3474.1,1917.3v18.4h-99.7v-18.4H3474.1z"/>
	<path d="M3594.4,1976v6.4c0,9.3-1.2,17.8-3.7,25.2c-2.5,7.4-6,13.7-10.6,19c-4.6,5.2-10.1,9.2-16.4,12c-6.3,2.8-13.4,4.2-21.2,4.2
		c-7.6,0-14.7-1.4-21.1-4.2c-6.3-2.8-11.8-6.8-16.5-12c-4.6-5.2-8.2-11.5-10.8-19s-3.8-15.9-3.8-25.2v-6.4c0-9.4,1.3-17.8,3.8-25.2
		c2.6-7.4,6.1-13.7,10.7-18.9c4.6-5.3,10.1-9.3,16.4-12.1c6.4-2.8,13.4-4.2,21.1-4.2c7.8,0,14.8,1.4,21.2,4.2
		c6.3,2.8,11.8,6.8,16.4,12.1c4.6,5.2,8.2,11.5,10.7,18.9C3593.2,1958.2,3594.4,1966.6,3594.4,1976z M3570.8,1982.4v-6.6
		c0-6.7-0.6-12.6-1.9-17.8c-1.2-5.2-3.1-9.5-5.5-13s-5.4-6.1-9-7.9s-7.6-2.7-12.1-2.7s-8.6,0.9-12.1,2.7c-3.5,1.8-6.4,4.4-8.8,7.9
		c-2.4,3.5-4.3,7.8-5.6,13c-1.2,5.1-1.9,11-1.9,17.8v6.6c0,6.7,0.6,12.6,1.9,17.8c1.3,5.2,3.2,9.5,5.6,13.1c2.5,3.5,5.5,6.2,9,8
		s7.5,2.7,12.1,2.7s8.6-0.9,12.1-2.7c3.5-1.8,6.4-4.5,8.8-8c2.4-3.6,4.3-7.9,5.5-13.1C3570.2,1995,3570.8,1989.1,3570.8,1982.4z"/>
	<path d="M3621.2,1917.3h44.9c9.4,0,17.5,1.4,24.2,4.2c6.7,2.8,11.9,7,15.5,12.6s5.4,12.4,5.4,20.5c0,6.4-1.1,12-3.4,16.7
		c-2.3,4.7-5.5,8.6-9.6,11.8c-4.1,3.2-8.9,5.7-14.4,7.5l-7.3,3.7h-39.7l-0.2-18.4h29.6c4.8,0,8.8-0.8,12-2.5s5.5-4.1,7.1-7.1
		s2.5-6.4,2.5-10.3c0-4.1-0.8-7.7-2.4-10.7c-1.6-3.1-4-5.4-7.2-7.1c-3.2-1.6-7.3-2.5-12.2-2.5h-21.6V2041H3621v-123.7H3621.2z
		 M3691,2041l-28.6-55.4l24.7-0.1l29,54.3v1.2H3691z"/>
</g>
</svg>
