<?xml version="1.0" encoding="utf-8"?>
<!-- Generator: Adobe Illustrator 24.3.0, SVG Export Plug-In . SVG Version: 6.00 Build 0)  -->
<svg version="1.1" xmlns="http://www.w3.org/2000/svg" xmlns:xlink="http://www.w3.org/1999/xlink" x="0px" y="0px"
	 viewBox="0 0 2200 2200" style="enable-background:new 0 0 2200 2200;" xml:space="preserve">
<style type="text/css">
	.st0{fill:#fff;}
	.st1{fill:#fff;}
</style>
<g id="background">
</g>
<g id="Objects">
	<path class="st0" d="M1963.35,305.53c-0.69-0.95-2.12-0.94-2.81,0c-53.92,73.1-55.6,141.28-0.33,221.72c0.69,1,2.2,1,2.89-0.01
		C2018,446.49,2013.56,373.88,1963.35,305.53z M2164.16,474.31c-135.51-22.53-181.97,79-198.43,103.83c-2.12,3.19-5.9,3.1-8.06-0.06
		c-17.34-25.39-74.48-130.23-201.3-103.55c-1.14,0.24-1.74,1.56-1.18,2.58c63.64,115.68,170.53,105.2,196.24,105.02
		c3.7-0.02,5.57,2.56,5.57,6.27V692h9.81c-0.18-53.26-0.37-92.02-0.44-104.73c-0.01-2.87,1.67-4.96,4.54-4.89
		c23.45,0.59,126.61,14.71,194.52-105.46C2166,475.88,2165.34,474.51,2164.16,474.31z"/>
	<path class="st0" d="M1100,447.21c-419,0-758.67,292.27-758.67,652.79c0,185.76,90.17,353.39,234.91,472.26
		c-1.85,56.68-21.63,112.78-56.22,157.77c67.06-2.67,132.75-29.4,183.26-73.5c115.43,61.05,251.3,96.26,396.72,96.26
		c419,0,758.67-292.27,758.67-652.79S1519,447.21,1100,447.21z M1571.53,1416.33c-27.96,30.81-67.8,48.13-109.4,48.13H737.87
		c-41.6,0-81.44-17.32-109.4-48.13c-79.17-87.25-126.35-197.05-126.35-316.33c0-119.27,47.17-229.07,126.34-316.32
		c27.96-30.82,67.8-48.14,109.41-48.14h724.25c42.12,0,82.18,17.95,110.4,49.21c78.59,87.07,125.37,196.46,125.37,315.24
		C1697.88,1219.28,1650.7,1329.08,1571.53,1416.33z"/>
	<path class="st0" d="M305.21,1100c0,89.54,19.41,176.37,57.75,258.41c-102.43-33.68-176.97-100.35-176.97-258.41
		c0-149.93,74.54-224.73,176.98-258.41C324.63,923.67,305.21,1010.54,305.21,1100z"/>
	<path class="st0" d="M274.48,647.8v195.7c-26.58,17.16-49.07,37.85-67.25,61.94c-0.16,0.22-0.33,0.42-0.48,0.64V647.8
		c0-18.7,15.16-33.86,33.86-33.86C259.32,613.94,274.48,629.1,274.48,647.8z"/>
	<path class="st0" d="M1894.79,1100c0,89.54-19.41,176.37-57.75,258.41c102.43-33.68,176.97-100.35,176.97-258.41
		c0-149.93-74.54-224.73-176.98-258.41C1875.37,923.67,1894.79,1010.54,1894.79,1100z"/>
	<path class="st0" d="M1925.52,647.8v195.7c26.58,17.16,49.07,37.85,67.25,61.94c0.16,0.22,0.33,0.42,0.48,0.64V647.8
		c0-18.7-15.16-33.86-33.86-33.86C1940.68,613.94,1925.52,629.1,1925.52,647.8z"/>
	<g>
		<g>
			<path class="st1" d="M938.78,1079.76c-22.04,33.93-53.84,0-120.28,0c-66.42,0-98.23,33.93-120.27,0
				c-21.33-32.85,37.52-113.88,120.27-113.88S960.1,1046.91,938.78,1079.76z"/>
			<path class="st1" d="M1501.77,1079.76c-22.04,33.93-53.84,0-120.28,0c-66.42,0-98.23,33.93-120.27,0
				c-21.33-32.85,37.52-113.88,120.27-113.88C1464.23,965.87,1523.09,1046.91,1501.77,1079.76z"/>
		</g>
		<path class="st1" d="M1099.99,1234.13c-46.37,0-76.96-36.77-78.24-38.33c-6.93-8.48-5.68-20.98,2.8-27.91
			c8.48-6.93,20.98-5.68,27.91,2.8c0.13,0.15,20.23,23.77,47.53,23.77s47.4-23.62,47.6-23.86c6.93-8.48,19.39-9.69,27.87-2.76
			c8.48,6.93,9.7,19.47,2.76,27.95C1176.95,1197.36,1146.36,1234.13,1099.99,1234.13z"/>
	</g>
</g>
</svg>
